# xmcd CD database file
#
# Track frame offsets:
#	150
#	19196
#	41541
#	60551
#
# Disc length: 1100 seconds
#
# Revision: 1
# Processed by: cddbd v1.5.2PL0 Copyright (c) Steve Scherf et al.
# Submitted via: CDex 1.70beta2
#
DISCID=2a044a04
DTITLE=中島愛 - ジェリーフィッシュの告白
DYEAR=2009
DGENRE=J-POP(J)
TTITLE0=ジェリーフィッシュの告白
TTITLE1=陽のあたるへや
TTITLE2=ジェリーフィッシュの告白(w/o megumi)
TTITLE3=陽のあたるへや(w/o megumi)
EXTD=YEAR: 2009
EXTT0=
EXTT1=
EXTT2=
EXTT3=
PLAYORDER=
